<svg xmlns="http://www.w3.org/2000/svg" version="1.1" xmlns:xlink="http://www.w3.org/1999/xlink" xmlns:svgjs="http://svgjs.dev/svgjs" width="1000" height="623" viewBox="0 0 1000 623"><g transform="matrix(1,0,0,1,-0.6060606060606233,0.2522267206477409)"><svg viewBox="0 0 396 247" data-background-color="#ffffff" preserveAspectRatio="xMidYMid meet" height="623" width="1000" xmlns="http://www.w3.org/2000/svg" xmlns:xlink="http://www.w3.org/1999/xlink"><g id="tight-bounds" transform="matrix(1,0,0,1,0.2400000000000091,-0.09999999999999432)"><svg viewBox="0 0 395.52 247.2" height="247.2" width="395.52"><g><svg></svg></g><g><svg viewBox="0 0 395.52 247.2" height="247.2" width="395.52"><g transform="matrix(1,0,0,1,39.55199999999999,100.77476649129906)"><svg viewBox="0 0 316.416 45.65046701740186" height="45.65046701740186" width="316.416"><g><svg viewBox="0 0 316.416 45.65046701740186" height="45.65046701740186" width="316.416"><g><svg viewBox="0 0 316.416 45.65046701740186" height="45.65046701740186" width="316.416"><g id="textblocktransform"><svg viewBox="0 0 316.416 45.65046701740186" height="45.65046701740186" width="316.416" id="textblock"><g><svg viewBox="0 0 316.416 45.65046701740186" height="45.65046701740186" width="316.416"><g transform="matrix(1,0,0,1,0,0)"><svg width="316.416" viewBox="2.5 -35.150001525878906 247.0800018310547 35.650001525878906" height="45.65046701740186" data-palette-color="#010c80"><path d="M29.9-34.05L29.9-1.1Q29.9-0.05 25.2-0.05 20.5-0.05 20.1-0.8L20.1-0.8 11.75-16.4 11.75-0.85Q11.75 0.05 7.13 0.05 2.5 0.05 2.5-0.85L2.5-0.85 2.5-34.3Q2.5-35.05 6.45-35.05L6.45-35.05Q8-35.05 10.08-34.77 12.15-34.5 12.6-33.75L12.6-33.75 20.6-18.35 20.6-34.05Q20.6-35 25.25-35 29.9-35 29.9-34.05L29.9-34.05ZM53.55-1.35L53.55-1.35Q50.4 0.5 45.45 0.5 40.5 0.5 37.1-2.88 33.7-6.25 33.7-12.23 33.7-18.2 36.97-21.85 40.25-25.5 45.25-25.5 50.25-25.5 52.97-22.95 55.7-20.4 55.7-16.75L55.7-16.75Q55.7-8.65 46.4-8.65L46.4-8.65 42.95-8.65Q42.95-7.15 43.77-6.58 44.6-6 46.2-6L46.2-6Q49.7-6 52.85-7.6L52.85-7.6Q52.9-7.65 53.3-6.9L53.3-6.9Q54.5-4.75 54.5-3.28 54.5-1.8 53.55-1.35ZM47.3-15.8L47.3-15.8Q47.3-17.9 45.25-17.9L45.25-17.9Q44.3-17.9 43.62-17.32 42.95-16.75 42.95-15.65L42.95-15.65 42.95-14.1 45.65-14.1Q47.3-14.1 47.3-15.8ZM62.9-1.25L57.75-34.5Q57.6-35.05 62.8-35.05L62.8-35.05Q68.55-35.05 68.7-34.1L68.7-34.1 71.15-13.05 76.45-34.35Q76.7-35.1 80.35-35.1 84-35.1 84.25-34.4L84.25-34.4 89.45-12.95 92.34-34.2Q92.45-34.75 94.65-34.95 96.85-35.15 98.2-35.15L98.2-35.15Q103.45-35.15 103.3-34.45L103.3-34.45 97.25-1.3Q97.05-0.55 94.4-0.2 91.75 0.15 90.09 0.15L90.09 0.15Q83.9 0.15 83.6-1.25L83.6-1.25 80.2-15 76.5-1.3Q76.3-0.4 73 0L73 0Q71.3 0.15 69.6 0.15L69.6 0.15 66.4 0Q63.1-0.35 62.9-1.25L62.9-1.25ZM107.64-9L107.64-9Q111.69-6.55 114.04-6.55L114.04-6.55Q115.54-6.55 115.54-7.6L115.54-7.6Q115.54-8.35 112.94-9.55L112.94-9.55Q106.69-12.1 106.69-17.9L106.69-17.9Q106.69-21.6 109.39-23.55 112.09-25.5 115.87-25.5 119.64-25.5 122.27-24.7 124.89-23.9 124.89-22.6L124.89-22.6Q124.89-21.5 123.82-19.7 122.74-17.9 122.34-17.75L122.34-17.75Q120.19-18.95 117.69-18.95L117.69-18.95Q116.34-18.95 116.34-18L116.34-18Q116.34-17.4 116.87-16.98 117.39-16.55 118.79-15.93 120.19-15.3 121.12-14.8 122.04-14.3 123.19-13.4L123.19-13.4Q125.59-11.5 125.59-8.45L125.59-8.45Q125.59-4.45 122.94-1.98 120.29 0.5 114.94 0.5L114.94 0.5Q111.39 0.5 108.49-0.7 105.59-1.9 105.59-4L105.59-4Q105.59-5.4 106.27-6.95 106.94-8.5 107.64-9ZM133.69 0.1L133.69 0.1Q129.14 0.1 129.14-0.9L129.14-0.9 129.14-33.3Q129.14-35 130.69-35L130.69-35 139.49-35Q146.89-35 150.17-31.95 153.44-28.9 153.44-23.1L153.44-23.1Q153.44-18.3 150.34-14.3L150.34-14.3Q148.79-12.3 145.79-11.1 142.79-9.9 138.79-9.9L138.79-9.9 138.79-0.95Q138.79-0.35 136.92-0.13 135.04 0.1 133.69 0.1ZM139.84-26.3L138.79-26.3 138.79-18.4 139.44-18.4Q141.19-18.4 142.39-19.5 143.59-20.6 143.59-22.6 143.59-24.6 142.77-25.45 141.94-26.3 139.84-26.3L139.84-26.3ZM157.34-9.95L157.34-24.7Q157.34-25.25 161.64-25.25 165.94-25.25 165.94-24.7L165.94-24.7 165.94-10.1Q165.94-7.6 167.54-7.6L167.54-7.6Q168.74-7.6 170.24-8.65L170.24-8.65 170.24-24.7Q170.24-25.2 174.49-25.2 178.74-25.2 178.74-24.7L178.74-24.7 178.74-8.3 180.04-8.3Q181.74-8.3 181.74-5.05L181.74-5.05Q181.74-3.4 181.04-1.7L181.04-1.7Q180.04 0.5 178.34 0.5L178.34 0.5Q174.99 0.5 173.39-2.25L173.39-2.25 173.34-2.2Q170.29 0.5 166.79 0.5L166.79 0.5Q161.94 0.5 159.64-1.93 157.34-4.35 157.34-9.95L157.34-9.95ZM184.54-2.95L184.54-2.95 184.54-34.05Q184.54-35.1 189.61-35.1 194.69-35.1 194.69-34.05L194.69-34.05 194.69-9.55 202.39-9.55Q203.29-9.55 203.64-7.2L203.64-7.2Q203.79-6.05 203.79-4.85 203.79-3.65 203.64-2.4L203.64-2.4Q203.24 0 202.34 0L202.34 0 186.94 0Q185.84 0 185.19-0.9 184.54-1.8 184.54-2.95ZM207.58-9L207.58-9Q211.63-6.55 213.98-6.55L213.98-6.55Q215.48-6.55 215.48-7.6L215.48-7.6Q215.48-8.35 212.88-9.55L212.88-9.55Q206.63-12.1 206.63-17.9L206.63-17.9Q206.63-21.6 209.33-23.55 212.03-25.5 215.81-25.5 219.58-25.5 222.21-24.7 224.83-23.9 224.83-22.6L224.83-22.6Q224.83-21.5 223.76-19.7 222.68-17.9 222.28-17.75L222.28-17.75Q220.13-18.95 217.63-18.95L217.63-18.95Q216.28-18.95 216.28-18L216.28-18Q216.28-17.4 216.81-16.98 217.33-16.55 218.73-15.93 220.13-15.3 221.06-14.8 221.98-14.3 223.13-13.4L223.13-13.4Q225.53-11.5 225.53-8.45L225.53-8.45Q225.53-4.45 222.88-1.98 220.23 0.5 214.88 0.5L214.88 0.5Q211.33 0.5 208.43-0.7 205.53-1.9 205.53-4L205.53-4Q205.53-5.4 206.21-6.95 206.88-8.5 207.58-9ZM239.08-21.1L245.53-21.1Q246.48-21.1 246.48-17.6L246.48-17.6Q246.48-16.55 246.26-15.13 246.03-13.7 245.43-13.7L245.43-13.7 239.08-13.7 239.08-8.7 248.28-8.7Q249.13-8.7 249.43-6.5L249.43-6.5Q249.58-5.55 249.58-4.48 249.58-3.4 249.28-1.7 248.98 0 248.28 0L248.28 0 231.18 0Q229.28 0 229.28-1.55L229.28-1.55 229.28-33.7Q229.28-35 230.43-35L230.43-35 248.33-35Q249.38-35 249.38-30.58 249.38-26.15 248.33-26.15L248.33-26.15 239.08-26.15 239.08-21.1Z" opacity="1" transform="matrix(1,0,0,1,0,0)" fill="#010c80" class="undefined-text-0" data-fill-palette-color="primary" id="text-0"></path></svg></g></svg></g></svg></g></svg></g><g></g></svg></g></svg></g><g mask="url(&quot;#b11549fb-1c47-4b15-85bd-ce8dc422df34&quot;)"><g transform="matrix(3.9222665943938266, 0, 0, 3.9222665943938266, 6.34944314948487, 1)"><svg xmlns="http://www.w3.org/2000/svg" xmlns:xlink="http://www.w3.org/1999/xlink" version="1.1" x="0" y="0" viewBox="1.0750001668930054 18.742130279541016 97.60201263427734 62.51487350463867" enable-background="new 0 0 100 100" xml:space="preserve" height="62.51487350463867" width="97.60201263427734" class="icon-none" data-fill-palette-color="accent" id="none"><g fill="#77d4fc" data-fill-palette-color="accent"><path d="M44.942 81.257c-0.047 0-0.094-0.002-0.141-0.006-0.722-0.071-1.272-0.68-1.272-1.403V42.062l-4.508 9.904c-0.229 0.503-0.73 0.826-1.284 0.826H2.485c-0.779 0-1.41-0.631-1.41-1.41s0.631-1.41 1.41-1.41H36.83l6.826-14.997c0.276-0.604 0.935-0.934 1.582-0.794 0.649 0.141 1.112 0.715 1.112 1.378v30.043l9.143-45.726c0.144-0.711 0.803-1.198 1.521-1.127 0.722 0.072 1.272 0.679 1.272 1.404v38.004l2.151-7.18c0.18-0.596 0.729-1.005 1.351-1.005h35.479c0.779 0 1.41 0.631 1.41 1.41s-0.631 1.41-1.41 1.41H62.84l-4.612 15.382c-0.201 0.67-0.861 1.095-1.557 0.991-0.691-0.102-1.205-0.696-1.205-1.396V34.397l-9.143 45.727C46.19 80.788 45.606 81.257 44.942 81.257z" fill="#77d4fc" data-fill-palette-color="accent"></path></g></svg></g></g></svg></g><defs><mask id="b11549fb-1c47-4b15-85bd-ce8dc422df34"><rect width="640" height="400" fill="white"></rect><rect width="348.05760000000004" height="67.20442632060218" fill="black" y="89.9977868396989" x="23.731199999999973" id="transform-me"></rect></mask></defs></svg><rect width="395.52" height="247.2" fill="none" stroke="none" visibility="hidden"></rect></g></svg></g></svg>